<svg width="400" height="300" viewBox="0 0 400 300" xmlns="http://www.w3.org/2000/svg">
  <style>
    .disc {
      animation: spin 3s linear infinite;
    }
    .note {
      animation: float 2s ease-in-out infinite alternate;
    }
    .light {
      animation: flash 1s ease-in-out infinite alternate;
    }
    @keyframes spin {
      0% { transform: rotate(0deg); }
      100% { transform: rotate(360deg); }
    }
    @keyframes float {
      0% { transform: translateY(0); }
      100% { transform: translateY(-10px); }
    }
    @keyframes flash {
      0% { opacity: 0.3; }
      100% { opacity: 1; }
    }
  </style>
  
  <!-- Background -->
  <rect width="400" height="300" fill="#311B92" />
  
  <!-- Disco lights -->
  <circle class="light" cx="100" cy="50" r="20" fill="#F44336" style="animation-delay: 0.1s;" />
  <circle class="light" cx="200" cy="30" r="15" fill="#2196F3" style="animation-delay: 0.3s;" />
  <circle class="light" cx="300" cy="50" r="20" fill="#4CAF50" style="animation-delay: 0.5s;" />
  <circle class="light" cx="150" cy="40" r="15" fill="#FFC107" style="animation-delay: 0.7s;" />
  <circle class="light" cx="250" cy="40" r="15" fill="#9C27B0" style="animation-delay: 0.9s;" />
  
  <!-- DJ Turntable -->
  <rect x="150" y="150" width="100" height="80" rx="10" fill="#424242" />
  
  <g transform="translate(200, 190)">
    <circle cx="0" cy="0" r="40" fill="#212121" />
    <circle class="disc" cx="0" cy="0" r="30" fill="#9E9E9E" />
    <circle cx="0" cy="0" r="5" fill="#212121" />
    <rect x="-2" y="-30" width="4" height="30" fill="#212121" />
  </g>
  
  <!-- Music notes -->
  <g class="note" style="animation-delay: 0.2s;">
    <path d="M100,100 L100,70 L110,60 L110,90 Z" fill="white" />
    <circle cx="95" cy="100" r="8" fill="white" />
  </g>
  
  <g class="note" style="animation-delay: 0.5s;">
    <path d="M300,120 L300,90 L310,80 L310,110 Z" fill="white" />
    <circle cx="295" cy="120" r="8" fill="white" />
  </g>
  
  <g class="note" style="animation-delay: 0.8s;">
    <path d="M80,200 L80,170 L90,160 L90,190 Z" fill="white" />
    <circle cx="75" cy="200" r="8" fill="white" />
  </g>
  
  <g class="note" style="animation-delay: 1.1s;">
    <path d="M320,180 L320,150 L330,140 L330,170 Z" fill="white" />
    <circle cx="315" cy="180" r="8" fill="white" />
  </g>
  
  <!-- Text -->
  <text x="200" y="270" font-family="Arial" font-size="24" font-weight="bold" text-anchor="middle" fill="white">DJ for New Year's Party</text>
</svg>

