<svg width="400" height="300" viewBox="0 0 400 300" xmlns="http://www.w3.org/2000/svg">
  <style>
    .car {
      animation: drive 8s linear infinite;
    }
    .wheel {
      animation: rotate 2s linear infinite;
    }
    .cloud {
      animation: float 15s linear infinite;
    }
    @keyframes drive {
      0% { transform: translateX(-150px); }
      100% { transform: translateX(550px); }
    }
    @keyframes rotate {
      0% { transform: rotate(0deg); }
      100% { transform: rotate(360deg); }
    }
    @keyframes float {
      0% { transform: translateX(450px); }
      100% { transform: translateX(-150px); }
    }
  </style>
  
  <!-- Sky background -->
  <rect width="400" height="200" fill="#87CEEB" />
  
  <!-- Ground -->
  <rect y="200" width="400" height="100" fill="#8B4513" />
  
  <!-- Road -->
  <rect y="220" width="400" height="40" fill="#333" />
  <line x1="20" y1="240" x2="60" y2="240" stroke="#FFF" stroke-width="4" stroke-dasharray="40,40" />
  <line x1="100" y1="240" x2="140" y2="240" stroke="#FFF" stroke-width="4" stroke-dasharray="40,40" />
  <line x1="180" y1="240" x2="220" y2="240" stroke="#FFF" stroke-width="4" stroke-dasharray="40,40" />
  <line x1="260" y1="240" x2="300" y2="240" stroke="#FFF" stroke-width="4" stroke-dasharray="40,40" />
  <line x1="340" y1="240" x2="380" y2="240" stroke="#FFF" stroke-width="4" stroke-dasharray="40,40" />
  
  <!-- Clouds -->
  <g class="cloud" style="animation-delay: 0s;">
    <ellipse cx="100" cy="50" rx="30" ry="20" fill="white" />
    <ellipse cx="70" cy="50" rx="20" ry="15" fill="white" />
    <ellipse cx="130" cy="50" rx="20" ry="15" fill="white" />
  </g>
  
  <g class="cloud" style="animation-delay: -5s;">
    <ellipse cx="280" cy="80" rx="30" ry="20" fill="white" />
    <ellipse cx="250" cy="80" rx="20" ry="15" fill="white" />
    <ellipse cx="310" cy="80" rx="20" ry="15" fill="white" />
  </g>
  
  <!-- Car -->
  <g class="car">
    <!-- Car body -->
    <rect x="50" y="180" width="100" height="30" rx="10" fill="#FF5E78" />
    <rect x="70" y="150" width="60" height="30" rx="5" fill="#FF5E78" />
    <rect x="40" y="210" width="120" height="10" rx="5" fill="#FF5E78" />
    
    <!-- Windows -->
    <rect x="75" y="155" width="20" height="20" fill="#87CEEB" />
    <rect x="105" y="155" width="20" height="20" fill="#87CEEB" />
    
    <!-- Wheels -->
    <g transform="translate(60, 220)">
      <circle class="wheel" cx="0" cy="0" r="15" fill="#333" />
      <circle cx="0" cy="0" r="7" fill="#666" />
    </g>
    
    <g transform="translate(140, 220)">
      <circle class="wheel" cx="0" cy="0" r="15" fill="#333" />
      <circle cx="0" cy="0" r="7" fill="#666" />
    </g>
  </g>
  
  <!-- Text -->
  <text x="200" y="270" font-family="Arial" font-size="24" font-weight="bold" text-anchor="middle" fill="white">Airport Pickup</text>
</svg>

