<svg width="400" height="300" viewBox="0 0 400 300" xmlns="http://www.w3.org/2000/svg">
  <style>
    .light {
      animation: blink 2s ease-in-out infinite alternate;
    }
    .star {
      animation: twinkle 1.5s ease-in-out infinite alternate;
    }
    @keyframes blink {
      0% { opacity: 0.3; }
      100% { opacity: 1; }
    }
    @keyframes twinkle {
      0% { opacity: 0.5; transform: scale(0.8); }
      100% { opacity: 1; transform: scale(1.2); }
    }
  </style>
  
  <!-- Background -->
  <rect width="400" height="300" fill="#1A237E" />
  
  <!-- Stars -->
  <circle class="star" cx="50" cy="50" r="3" fill="white" style="animation-delay: 0.2s;" />
  <circle class="star" cx="100" cy="30" r="2" fill="white" style="animation-delay: 0.5s;" />
  <circle class="star" cx="150" cy="70" r="3" fill="white" style="animation-delay: 0.8s;" />
  <circle class="star" cx="200" cy="40" r="2" fill="white" style="animation-delay: 0.3s;" />
  <circle class="star" cx="250" cy="60" r="3" fill="white" style="animation-delay: 0.7s;" />
  <circle class="star" cx="300" cy="30" r="2" fill="white" style="animation-delay: 0.1s;" />
  <circle class="star" cx="350" cy="70" r="3" fill="white" style="animation-delay: 0.6s;" />
  
  <!-- House -->
  <rect x="100" y="120" width="200" height="130" fill="#5D4037" />
  <polygon points="100,120 200,70 300,120" fill="#795548" />
  
  <!-- Door -->
  <rect x="180" y="180" width="40" height="70" fill="#4E342E" />
  <circle cx="210" cy="215" r="3" fill="#FFC107" />
  
  <!-- Windows -->
  <rect x="130" y="150" width="30" height="30" fill="#FFECB3" />
  <rect x="240" y="150" width="30" height="30" fill="#FFECB3" />
  
  <!-- Christmas lights -->
  <circle class="light" cx="100" cy="120" r="5" fill="#F44336" style="animation-delay: 0.1s;" />
  <circle class="light" cx="130" cy="105" r="5" fill="#4CAF50" style="animation-delay: 0.3s;" />
  <circle class="light" cx="160" cy="90" r="5" fill="#2196F3" style="animation-delay: 0.5s;" />
  <circle class="light" cx="190" cy="75" r="5" fill="#FFC107" style="animation-delay: 0.7s;" />
  <circle class="light" cx="220" cy="75" r="5" fill="#9C27B0" style="animation-delay: 0.9s;" />
  <circle class="light" cx="250" cy="90" r="5" fill="#F44336" style="animation-delay: 1.1s;" />
  <circle class="light" cx="280" cy="105" r="5" fill="#4CAF50" style="animation-delay: 1.3s;" />
  <circle class="light" cx="300" cy="120" r="5" fill="#2196F3" style="animation-delay: 1.5s;" />
  
  <!-- Text -->
  <text x="200" y="270" font-family="Arial" font-size="24" font-weight="bold" text-anchor="middle" fill="white">Holiday Decorations</text>
</svg>

