<svg width="400" height="300" viewBox="0 0 400 300" xmlns="http://www.w3.org/2000/svg">
  <style>
    .confetti {
      animation: fall 3s linear infinite;
    }
    .balloon {
      animation: float 4s ease-in-out infinite;
    }
    @keyframes fall {
      0% { transform: translateY(-50px) rotate(0deg); }
      100% { transform: translateY(350px) rotate(360deg); }
    }
    @keyframes float {
      0%, 100% { transform: translateY(0); }
      50% { transform: translateY(-20px); }
    }
  </style>
  
  <!-- Background -->
  <rect width="400" height="300" fill="#FFD6E8" />
  
  <!-- Confetti -->
  <rect class="confetti" x="50" y="30" width="10" height="10" fill="#FF5E78" style="animation-delay: 0.5s;" />
  <rect class="confetti" x="120" y="10" width="15" height="15" fill="#FFBE0B" style="animation-delay: 1.2s;" />
  <rect class="confetti" x="200" y="20" width="12" height="12" fill="#8338EC" style="animation-delay: 0.8s;" />
  <rect class="confetti" x="280" y="15" width="8" height="8" fill="#3A86FF" style="animation-delay: 1.5s;" />
  <rect class="confetti" x="350" y="25" width="14" height="14" fill="#FB5607" style="animation-delay: 0.3s;" />
  
  <!-- Balloons -->
  <g class="balloon" style="animation-delay: 0.2s;">
    <path d="M100,150 C100,100 130,80 150,120 C170,80 200,100 200,150 C200,200 100,200 100,150 Z" fill="#FF5E78" />
    <line x1="150" y1="150" x2="150" y2="220" stroke="#333" stroke-width="2" />
  </g>
  
  <g class="balloon" style="animation-delay: 0.7s;">
    <path d="M220,170 C220,120 250,100 270,140 C290,100 320,120 320,170 C320,220 220,220 220,170 Z" fill="#3A86FF" />
    <line x1="270" y1="170" x2="270" y2="240" stroke="#333" stroke-width="2" />
  </g>
  
  <!-- Party text -->
  <text x="200" y="270" font-family="Arial" font-size="24" font-weight="bold" text-anchor="middle" fill="#333">Party Time!</text>
</svg>

