<svg xmlns="http://www.w3.org/2000/svg" xmlns:xlink="http://www.w3.org/1999/xlink" width="500" zoomAndPan="magnify" viewBox="0 0 375 374.999991" height="500" preserveAspectRatio="xMidYMid meet" version="1.0"><defs><g/></defs><g fill="#000000" fill-opacity="1"><g transform="translate(26.878336, 214.981805)"><g><path d="M 46.171875 1.3125 C 31.078125 1.3125 19.96875 -1.789062 12.84375 -8 C 6.550781 -13.476562 3.40625 -20.96875 3.40625 -30.46875 C 3.40625 -39.96875 6.550781 -47.46875 12.84375 -52.96875 C 19.96875 -59.15625 31.078125 -62.25 46.171875 -62.25 C 55.015625 -62.25 62.328125 -61.234375 68.109375 -59.203125 C 73.898438 -57.179688 78.398438 -54.410156 81.609375 -50.890625 C 84.816406 -47.367188 86.941406 -43.34375 87.984375 -38.8125 L 61.0625 -38.8125 C 58.363281 -43.539062 53.398438 -45.90625 46.171875 -45.90625 C 39.984375 -45.90625 35.425781 -44.117188 32.5 -40.546875 C 30.175781 -37.710938 29.015625 -34.351562 29.015625 -30.46875 C 29.015625 -26.582031 30.175781 -23.21875 32.5 -20.375 C 35.425781 -16.800781 39.984375 -15.015625 46.171875 -15.015625 C 53.398438 -15.015625 58.363281 -17.398438 61.0625 -22.171875 L 87.984375 -22.171875 C 86.941406 -17.597656 84.816406 -13.550781 81.609375 -10.03125 C 78.398438 -6.519531 73.898438 -3.75 68.109375 -1.71875 C 62.328125 0.300781 55.015625 1.3125 46.171875 1.3125 Z M 46.171875 1.3125 "/></g></g></g><g fill="#000000" fill-opacity="1"><g transform="translate(118.279176, 214.981805)"><g><path d="M 90.203125 0 L 64.59375 0 L 64.59375 -24.640625 L 32.421875 -24.640625 L 32.421875 0 L 6.8125 0 L 6.8125 -61.0625 L 32.421875 -61.0625 L 32.421875 -36.375 L 64.59375 -36.375 L 64.59375 -61.0625 L 90.203125 -61.0625 Z M 90.203125 0 "/></g></g></g><g fill="#000000" fill-opacity="1"><g transform="translate(215.296827, 214.981805)"><g><path d="M 32.421875 0 L 6.8125 0 L 6.8125 -61.0625 L 32.421875 -61.0625 Z M 32.421875 0 "/></g></g></g><g fill="#000000" fill-opacity="1"><g transform="translate(254.529415, 214.981805)"><g><path d="M 32.421875 0 L 6.8125 0 L 6.8125 -61.0625 L 48.46875 -61.0625 C 58.414062 -61.0625 66.445312 -60.316406 72.5625 -58.828125 C 78.675781 -57.335938 83.132812 -54.992188 85.9375 -51.796875 C 88.75 -48.609375 90.15625 -44.445312 90.15625 -39.3125 C 90.15625 -34.207031 88.75 -30.054688 85.9375 -26.859375 C 83.132812 -23.671875 78.675781 -21.332031 72.5625 -19.84375 C 66.445312 -18.351562 58.414062 -17.609375 48.46875 -17.609375 L 32.421875 -17.609375 Z M 32.421875 -32.671875 L 47.0625 -32.71875 C 51.144531 -32.71875 54.363281 -32.878906 56.71875 -33.203125 C 59.070312 -33.535156 60.804688 -34 61.921875 -34.59375 C 63.046875 -35.1875 63.765625 -35.882812 64.078125 -36.6875 C 64.390625 -37.5 64.546875 -38.375 64.546875 -39.3125 C 64.546875 -40.28125 64.390625 -41.164062 64.078125 -41.96875 C 63.765625 -42.78125 63.046875 -43.484375 61.921875 -44.078125 C 60.804688 -44.671875 59.070312 -45.128906 56.71875 -45.453125 C 54.363281 -45.785156 51.144531 -45.953125 47.0625 -45.953125 L 32.421875 -45.953125 Z M 32.421875 -32.671875 "/></g></g></g><g fill="#000000" fill-opacity="1"><g transform="translate(64.452199, 173.384734)"><g><path d="M 13.203125 0 L 2.1875 0 L 2.1875 -39.296875 L 13.203125 -39.296875 Z M 13.203125 0 "/></g></g></g><g fill="#000000" fill-opacity="1"><g transform="translate(64.452199, 193.39468)"><g><path d="M 13.203125 0 L 2.1875 0 L 2.1875 -39.296875 L 13.203125 -39.296875 Z M 13.203125 0 "/></g></g></g><g fill="#000000" fill-opacity="1"><g transform="translate(64.452199, 216.974885)"><g><path d="M 13.203125 0 L 2.1875 0 L 2.1875 -39.296875 L 13.203125 -39.296875 Z M 13.203125 0 "/></g></g></g><g fill="#000000" fill-opacity="1"><g transform="translate(64.452199, 236.984838)"><g><path d="M 13.203125 0 L 2.1875 0 L 2.1875 -39.296875 L 13.203125 -39.296875 Z M 13.203125 0 "/></g></g></g></svg>